<?xml version="1.0" encoding="UTF-8" standalone="no"?>
<svg
   height="24"
   viewBox="0 -960 960 960"
   width="24"
   version="1.1"
   id="svg1"
   sodipodi:docname="robot_position.svg"
   xml:space="preserve"
   inkscape:version="1.3.2 (091e20e, 2023-11-25)"
   xmlns:inkscape="http://www.inkscape.org/namespaces/inkscape"
   xmlns:sodipodi="http://sodipodi.sourceforge.net/DTD/sodipodi-0.dtd"
   xmlns="http://www.w3.org/2000/svg"
   xmlns:svg="http://www.w3.org/2000/svg"><defs
     id="defs1" /><sodipodi:namedview
     id="namedview1"
     pagecolor="#ffffff"
     bordercolor="#000000"
     borderopacity="0.25"
     inkscape:showpageshadow="2"
     inkscape:pageopacity="0.0"
     inkscape:pagecheckerboard="0"
     inkscape:deskcolor="#d1d1d1"
     inkscape:zoom="15.958505"
     inkscape:cx="51.66524"
     inkscape:cy="17.796153"
     inkscape:window-width="2560"
     inkscape:window-height="1387"
     inkscape:window-x="0"
     inkscape:window-y="25"
     inkscape:window-maximized="1"
     inkscape:current-layer="layer1" /><g
     inkscape:groupmode="layer"
     id="layer1"
     inkscape:label="eyes"><path
       d="m 182.55621,-262.21854 c -25.2082,34.17889 4.05834,-163.75517 4.05834,-228.53327 55.50567,-27.14107 545.55156,-1.85179 582.949,-3.99971 48.7203,-2.79824 15.58905,227.74703 12.294,219.58106 z"
       id="path4"
       sodipodi:nodetypes="ccscc"
       style="fill:#535353;fill-opacity:1" /><path
       d="m 221.26028,-550.49719 c -25.2082,34.17889 40.09317,-78.33927 40.09317,-143.11737 106.92959,10.28303 161.09069,-112.00269 435.12515,4.76652 140.91594,60.04589 42.90905,62.0063 36.24326,140.69481 z"
       id="path3"
       sodipodi:nodetypes="ccscc"
       style="fill:#86b1f7;fill-opacity:1" /><path
       d="m 240,-200 v 40 c 0,11.33333 -3.83333,20.83333 -11.5,28.5 -7.66667,7.66667 -17.16667,11.5 -28.5,11.5 h -40 c -11.33333,0 -20.83333,-3.83333 -28.5,-11.5 -7.66667,-7.66667 -11.5,-17.16667 -11.5,-28.5 v -320 l 84,-240 c 4,-12 11.16667,-21.66667 21.5,-29 10.33333,-7.33333 21.83333,-11 34.5,-11 h 440 c 12.66667,0 24.16667,3.66667 34.5,11 10.33333,7.33333 17.5,17 21.5,29 l 84,240 v 320 c 0,11.33333 -3.83333,20.83333 -11.5,28.5 -7.66667,7.66667 -17.16667,11.5 -28.5,11.5 h -40 c -11.33333,0 -20.83333,-3.83333 -28.5,-11.5 -7.66667,-7.66667 -11.5,-17.16667 -11.5,-28.5 v -40 z m -8,-360 H 728 L 686,-680 H 274 Z m -32,80 v 200 z m 0,200 H 760 V -480 H 200 Z"
       id="path1"
       sodipodi:nodetypes="cssssssccssssccssssssccccccccccccccc" /><path
       d="m 380,-320 c 16.66667,0 30.83333,-5.83333 42.5,-17.5 11.66667,-11.66667 17.5,-25.83333 17.5,-42.5 0,-16.66667 -5.83333,-30.83333 -17.5,-42.5 -11.66667,-11.66667 -25.83333,-17.5 -42.5,-17.5 -16.66667,0 -30.83333,5.83333 -42.5,17.5 -11.66667,11.66667 -17.5,25.83333 -17.5,42.5 0,16.66667 5.83333,30.83333 17.5,42.5 11.66667,11.66667 25.83333,17.5 42.5,17.5 z m 200,0 c 16.66667,0 30.83333,-5.83333 42.5,-17.5 11.66667,-11.66667 17.5,-25.83333 17.5,-42.5 0,-16.66667 -5.83333,-30.83333 -17.5,-42.5 -11.66667,-11.66667 -25.83333,-17.5 -42.5,-17.5 -16.66667,0 -30.83333,5.83333 -42.5,17.5 -11.66667,11.66667 -17.5,25.83333 -17.5,42.5 0,16.66667 5.83333,30.83333 17.5,42.5 11.66667,11.66667 25.83333,17.5 42.5,17.5 z"
       id="path2"
       sodipodi:nodetypes="ssssssssssssssssss"
       style="fill:#f9f9f9" /></g></svg>
